<?xml version="1.0" ?>
<svg id="Layer_1" style="enable-background:new 0 0 50 50;" version="1.1" viewBox="0 0 50 50" xml:space="preserve"
    xmlns="http://www.w3.org/2000/svg"
    xmlns:xlink="http://www.w3.org/1999/xlink">
    <style type="text/css">
	.st0{fill:#F0C4DB;}
	.st1{fill:#FF9D9C;}
	.st2{fill:#9BEAF9;}
	.st3{fill:#E9F4BC;}
	.st4{fill:#505050;}
	.st5{fill:#FEBECC;}
	.st6{fill:#FFFFFF;}
	.st7{fill:#FDE4A1;}
	.st8{fill:#FEE7B5;}
	.st9{fill:#CDF6FC;}
	.st10{fill:#F2C6DD;}
	.st11{opacity:0.1;}
    </style>
    <g>
        <path class="st0" d="M27.88,27.44c0,11.6,9.4,21,21,21v-42C37.28,6.44,27.88,15.84,27.88,27.44z"/>
        <g>
            <g>
                <g>
                    <circle class="st3" cx="35.65" cy="35.78" r="12.22"/>
                </g>
                <g>
                    <circle class="st7" cx="35.65" cy="35.78" r="9.09"/>
                </g>
                <path class="st1" d="M32.86,4.22v14.63c0,1.22-0.99,2.21-2.21,2.21H4.08c-1.22,0-2.21-0.99-2.21-2.21V4.22     C1.87,2.99,2.87,2,4.08,2h26.56C31.86,2,32.86,3,32.86,4.22z"/>
                <path class="st6" d="M29.9,7.17v8.73c-1.22,0-2.21,0.99-2.21,2.21H7.03c0-1.23-0.99-2.21-2.21-2.21V7.17     c1.22,0,2.21-0.99,2.21-2.21h20.66C27.69,6.17,28.68,7.17,29.9,7.17z"/>
            </g>
            <g>
                <path class="st4" d="M35.65,22.8c-6.51,0-12.04,4.86-12.87,11.31c-0.02,0.2,0.03,0.39,0.15,0.55c0.13,0.16,0.3,0.26,0.5,0.29     c0.41,0.05,0.79-0.25,0.84-0.65c0.73-5.7,5.62-10,11.38-10c6.32,0.01,11.47,5.16,11.48,11.48c-0.01,6.31-5.16,11.46-11.48,11.47     c-5.45,0-10.19-3.88-11.25-9.22c-0.08-0.39-0.48-0.67-0.88-0.58c-0.2,0.04-0.37,0.15-0.48,0.31c-0.11,0.17-0.15,0.37-0.11,0.57     c1.2,6.04,6.55,10.42,12.72,10.42c7.16,0,12.98-5.82,12.98-12.97C48.63,28.62,42.81,22.8,35.65,22.8z"/>
                <path class="st4" d="M23.46,36.95c0.41-0.02,0.74-0.37,0.72-0.78c-0.01-0.4-0.34-0.72-0.74-0.72h-0.03     c-0.2,0-0.39,0.09-0.52,0.23c-0.14,0.15-0.21,0.34-0.21,0.54c0.02,0.41,0.35,0.73,0.75,0.73C23.44,36.95,23.44,36.95,23.46,36.95     z"/>
                <path class="st4" d="M35.65,45.62c5.43,0,9.84-4.41,9.84-9.84c0-5.43-4.41-9.84-9.84-9.84c-5.43,0-9.84,4.41-9.84,9.84     C25.81,41.2,30.22,45.62,35.65,45.62z M35.65,27.44c4.6,0,8.34,3.74,8.34,8.34c0,4.6-3.74,8.34-8.34,8.34     c-4.6,0-8.34-3.74-8.34-8.34C27.31,31.18,31.05,27.44,35.65,27.44z"/>
                <path class="st4" d="M35.65,39.17c-0.73,0-1.32-0.59-1.32-1.32c0-0.41-0.34-0.75-0.75-0.75s-0.75,0.34-0.75,0.75     c0,1.29,0.88,2.37,2.07,2.71v0.43c0,0.41,0.34,0.75,0.75,0.75s0.75-0.34,0.75-0.75v-0.43c1.19-0.33,2.07-1.41,2.07-2.71     c0-1.55-1.26-2.82-2.82-2.82c-0.73,0-1.32-0.59-1.32-1.32c0-0.73,0.59-1.32,1.32-1.32c0.73,0,1.32,0.59,1.32,1.32     c0,0.41,0.34,0.75,0.75,0.75s0.75-0.34,0.75-0.75c0-1.29-0.88-2.37-2.07-2.71v-0.43c0-0.41-0.34-0.75-0.75-0.75     s-0.75,0.34-0.75,0.75V31c-1.19,0.33-2.07,1.41-2.07,2.71c0,1.55,1.26,2.82,2.82,2.82c0.73,0,1.32,0.59,1.32,1.32     S36.37,39.17,35.65,39.17z"/>
                <path class="st4" d="M17.36,9.21c0.52,0,0.94,0.42,0.94,0.94c0,0.41,0.34,0.75,0.75,0.75s0.75-0.34,0.75-0.75     c0-1.08-0.71-1.99-1.69-2.31V7.59c0-0.41-0.34-0.75-0.75-0.75s-0.75,0.34-0.75,0.75v0.25c-0.98,0.32-1.69,1.23-1.69,2.31     c0,1.34,1.09,2.44,2.44,2.44c0.52,0,0.94,0.42,0.94,0.94c0,0.52-0.42,0.94-0.94,0.94c-0.52,0-0.94-0.42-0.94-0.94     c0-0.41-0.34-0.75-0.75-0.75s-0.75,0.34-0.75,0.75c0,1.08,0.71,1.99,1.69,2.31v0.25c0,0.41,0.34,0.75,0.75,0.75     s0.75-0.34,0.75-0.75v-0.25c0.98-0.32,1.69-1.23,1.69-2.31c0-1.34-1.09-2.44-2.44-2.44c-0.52,0-0.94-0.42-0.94-0.94     C16.42,9.64,16.85,9.21,17.36,9.21z"/>
                <path class="st4" d="M9.5,21.06c0-0.4-0.33-0.74-0.74-0.74c0-0.01-0.01-0.01-0.01-0.01H4.08c-0.8,0-1.45-0.65-1.45-1.45V4.22     c0-0.81,0.65-1.47,1.45-1.47h26.57c0.8,0,1.46,0.66,1.46,1.47v14.63c0,0.81-0.66,1.46-1.46,1.46H12.75     c-0.42,0-0.75,0.34-0.75,0.75c0,0.42,0.33,0.76,0.75,0.76l17.89-0.01c1.63,0,2.96-1.33,2.96-2.96V4.22     c0-1.64-1.33-2.97-2.96-2.97H4.08c-1.63,0-2.95,1.33-2.95,2.97v14.64c0,1.63,1.32,2.95,2.95,2.95h4.68     C9.17,21.81,9.5,21.48,9.5,21.06z"/>
                <circle class="st4" cx="10.75" cy="21.06" r="0.75"/>
                <path class="st4" d="M28.44,18.11c0-0.81,0.66-1.47,1.46-1.47c0.41,0,0.75-0.34,0.75-0.75V7.17c0-0.41-0.34-0.75-0.75-0.75     c-0.81,0-1.46-0.66-1.46-1.46c0-0.41-0.34-0.75-0.75-0.75H7.03c-0.41,0-0.75,0.34-0.75,0.75c0,0.81-0.65,1.46-1.46,1.46     c-0.41,0-0.75,0.34-0.75,0.75v8.73c0,0.41,0.34,0.75,0.75,0.75c0.8,0,1.46,0.66,1.46,1.47c0,0.41,0.34,0.75,0.75,0.75h20.66     C28.1,18.86,28.44,18.53,28.44,18.11z M7.69,17.36c-0.27-1.03-1.08-1.85-2.11-2.12V7.82C6.6,7.55,7.42,6.74,7.69,5.7h19.35     c0.27,1.03,1.09,1.85,2.12,2.12v7.42c-1.03,0.27-1.85,1.09-2.12,2.12H7.69z"/>
                <path class="st4" d="M36.11,11.6c3.37,0,6.18,2.4,6.83,5.58l-2.66-1.57c-0.35-0.21-0.82-0.09-1.03,0.27     c-0.21,0.36-0.09,0.82,0.27,1.03l3.93,2.32c0.12,0.07,0.25,0.1,0.38,0.1c0.26,0,0.51-0.13,0.65-0.37l2.32-3.93     c0.21-0.36,0.09-0.82-0.27-1.03c-0.35-0.21-0.82-0.09-1.03,0.27l-1.23,2.09c-0.98-3.59-4.27-6.24-8.16-6.24     c-0.41,0-0.75,0.34-0.75,0.75S35.7,11.6,36.11,11.6z"/>
                <path class="st4" d="M18.64,38.41c-3.37,0-6.18-2.4-6.83-5.58l2.66,1.57c0.36,0.21,0.82,0.09,1.03-0.27     c0.21-0.36,0.09-0.82-0.27-1.03l-3.93-2.32c-0.35-0.21-0.82-0.09-1.03,0.27l-2.32,3.93c-0.21,0.36-0.09,0.82,0.27,1.03     c0.12,0.07,0.25,0.1,0.38,0.1c0.26,0,0.51-0.13,0.65-0.37l1.23-2.09c0.98,3.59,4.27,6.24,8.16,6.24c0.41,0,0.75-0.34,0.75-0.75     S19.05,38.41,18.64,38.41z"/>
            </g>
        </g>
    </g>
</svg>